<svg width="170" height="27" viewBox="0 0 170 27" fill="none" xmlns="http://www.w3.org/2000/svg">
<g clip-path="url(#clip0)">
<path fill-rule="evenodd" clip-rule="evenodd" d="M19.5284 19.1671H15.1636L10.4631 5.19832L10.1274 4.87346C9.79163 4.87346 9.79163 5.19832 9.45588 5.19832L4.75538 19.1671H0.390625C0.726375 17.8677 1.39788 16.2434 2.06938 13.9694C2.74088 11.3706 3.74813 9.09659 4.41963 6.8226C5.42688 4.22375 5.76263 2.92433 6.09838 2.59947C6.43413 1.94976 7.10563 1.6249 7.77713 1.30005C8.44863 0.975189 9.12013 0.975189 10.1274 0.975189C10.7989 0.975189 11.4704 0.975189 12.1419 1.30005C12.8134 1.6249 13.4849 1.94976 13.8206 2.59947C14.1564 2.92433 14.4921 4.22375 15.4994 6.8226C16.1709 8.44688 16.8424 11.0457 17.8496 13.9694C18.5211 15.5937 19.1926 17.5428 19.5284 19.1671ZM29.6009 19.1671H20.5356V0.975189H29.6009C31.6154 0.975189 33.6299 1.94976 34.6371 3.89889C35.9801 5.52317 36.6516 7.79716 36.6516 10.396C36.6516 12.67 35.9801 14.6191 34.6371 16.2434C33.6299 18.1926 31.9511 19.1671 29.6009 19.1671ZM28.9294 15.2689C29.9366 15.2689 30.6081 14.6191 31.2796 13.6446C31.9511 12.67 31.9511 11.3706 31.9511 9.7463C31.9511 8.44688 31.9511 7.47231 31.2796 6.49774C30.6081 5.52317 29.9366 4.87346 28.9294 4.87346H24.5646V15.2689H28.9294Z" fill="url(#paint0_linear)"/>
<path fill-rule="evenodd" clip-rule="evenodd" d="M65.526 10.7209L62.5042 0.975189H57.1322L54.4462 10.396L51.4245 0.975189H46.0525L40.3447 19.1671H45.7167L48.7385 9.7463L51.7602 19.1671H51.4245H57.1322L59.8182 9.7463L62.84 19.1671L60.4897 26.9637H66.1975L71.9052 7.79717L72.241 7.14745L73.9197 0.975189H68.5477L66.5332 7.79717L65.526 10.7209Z" fill="url(#paint1_linear)"/>
<path fill-rule="evenodd" clip-rule="evenodd" d="M151.814 15.5937C151.814 16.8931 151.478 17.8677 150.471 18.5174C149.464 19.1671 148.456 19.492 147.113 19.492C146.106 19.492 145.099 19.1671 144.092 18.8423C143.084 18.1926 142.413 17.218 142.077 15.9186C142.077 15.9186 141.741 14.6191 141.07 12.3451C140.398 10.0712 139.727 8.44688 139.391 7.14745C138.72 5.52317 138.384 4.87346 137.712 4.87346L137.377 5.19832C137.377 5.52317 137.041 5.52317 137.041 5.84803V19.492H133.012V4.87346C133.012 3.57404 133.683 2.59947 134.691 1.94976C135.362 1.30005 136.705 0.975189 138.048 0.975189C139.727 0.975189 141.406 1.94976 142.413 3.57404C143.084 4.87346 143.756 6.8226 144.427 9.42145C145.099 12.3451 145.77 14.2943 146.106 14.944C146.106 15.2689 146.442 15.2689 146.442 15.2689C146.778 15.5937 146.778 15.5937 147.113 15.5937C147.113 15.5937 147.449 15.5937 147.449 15.2689C147.785 15.2689 147.785 14.944 147.785 14.6191V1.30005H151.814V15.5937ZM132.34 19.492H127.64L122.939 5.52317C122.939 5.19832 122.604 5.19832 122.604 5.19832C122.268 5.19832 122.268 5.19832 122.268 5.52317L117.567 19.492H112.867C113.203 18.1926 113.874 16.5683 114.546 14.2943C115.553 11.6954 116.224 9.42145 116.896 7.14745C117.903 4.54861 118.575 2.92433 118.575 2.92433C118.91 2.27461 119.582 1.94976 120.253 1.6249C120.925 1.30005 121.596 1.30005 122.604 1.30005C123.275 1.30005 124.282 1.30005 124.954 1.6249C125.625 1.94976 125.961 2.27461 126.297 2.92433C126.633 2.92433 127.304 4.54861 127.976 6.8226C128.647 8.77173 129.654 11.0457 130.662 14.2943C130.997 15.9186 131.669 17.5428 132.34 19.492ZM162.558 19.492H153.493V1.30005H162.558C164.908 1.30005 166.587 2.27461 167.93 4.22375C168.937 5.84803 169.609 8.12202 169.609 10.396C169.609 12.9949 168.937 14.944 167.93 16.5683C166.587 18.5174 164.908 19.492 162.558 19.492ZM161.886 15.5937C162.894 15.5937 163.901 14.944 164.237 13.6446C164.908 12.67 165.244 11.6954 165.244 10.0712C165.244 8.77173 164.908 7.47231 164.237 6.8226C163.901 5.52317 162.894 5.19832 161.886 5.19832H157.857V15.5937H161.886ZM112.195 19.8168L100.444 14.944V19.492H96.4151V13.3197C96.4151 12.0203 96.7508 10.7209 97.4223 9.7463C98.4296 8.77173 99.4368 8.44688 101.116 8.44688H106.152C106.823 8.44688 107.159 8.12202 107.495 7.79717C107.495 7.47231 107.831 7.14745 107.831 6.8226C107.831 6.17289 107.495 5.84803 107.495 5.52317C107.159 5.19832 106.823 5.19832 106.152 5.19832H96.4151V1.30005H106.823C108.502 1.30005 109.845 1.94976 110.852 2.92433C111.524 3.89889 111.86 5.19832 111.86 6.8226C111.86 8.12202 111.524 9.42145 110.852 10.396C109.845 11.6954 108.502 12.3451 106.823 12.3451H104.473L112.195 15.5937V19.8168ZM93.3933 10.396C93.7291 10.7209 94.0648 11.3706 94.4006 12.0203C94.4006 12.67 94.7363 13.3197 94.7363 13.9694C94.7363 15.2689 94.0648 16.5683 93.3933 17.5428C92.3861 18.8423 91.0431 19.492 89.3643 19.492H78.9561V15.5937H88.6928C89.3643 15.5937 89.7001 15.2689 90.0358 14.944C90.0358 14.6191 90.3716 14.2943 90.3716 13.9694C90.3716 13.6446 90.0358 12.9949 90.0358 12.9949C89.7001 12.67 89.3643 12.3451 88.6928 12.3451H78.9561V8.44688H88.6928C89.3643 8.44688 89.7001 8.12202 90.0358 7.79717C90.0358 7.47231 90.3716 7.14745 90.3716 6.8226C90.3716 6.17289 90.0358 5.84803 90.0358 5.52317C89.7001 5.19832 89.3643 5.19832 88.6928 5.19832H78.9561V1.30005H89.3643C91.0431 1.30005 92.3861 1.94976 93.3933 2.92433C94.0648 4.22375 94.7363 5.52317 94.7363 6.8226C94.7363 7.47231 94.4006 8.12202 94.4006 8.77173C94.0648 9.42145 93.7291 10.0712 93.3933 10.396Z" fill="url(#paint2_linear)"/>
</g>
<defs>
<linearGradient id="paint0_linear" x1="0.390625" y1="10.0432" x2="36.4854" y2="10.0432" gradientUnits="userSpaceOnUse">
<stop stop-color="#1A9A9D"/>
<stop offset="1" stop-color="#1B7ABE"/>
</linearGradient>
<linearGradient id="paint1_linear" x1="40.3887" y1="13.9563" x2="74.0665" y2="13.9563" gradientUnits="userSpaceOnUse">
<stop stop-color="#2774BA"/>
<stop offset="1" stop-color="#8E429D"/>
</linearGradient>
<linearGradient id="paint2_linear" x1="78.899" y1="10.3676" x2="169.57" y2="10.3676" gradientUnits="userSpaceOnUse">
<stop stop-color="#E5097F"/>
<stop offset="1" stop-color="#E0574D"/>
</linearGradient>
<clipPath id="clip0">
<rect width="170" height="25.9885" fill="white" transform="translate(0 0.975189)"/>
</clipPath>
</defs>
</svg>
